<mxfile host="65bd71144e">
    <diagram id="-7-_0DLWUSnEdkzia4Ox" name="Page-1">
        <mxGraphModel dx="1013" dy="1749" grid="1" gridSize="10" guides="1" tooltips="1" connect="1" arrows="1" fold="1" page="1" pageScale="1" pageWidth="850" pageHeight="1100" math="0" shadow="0">
            <root>
                <mxCell id="0"/>
                <mxCell id="1" parent="0"/>
                <mxCell id="69" style="edgeStyle=none;html=1;entryX=0.5;entryY=0;entryDx=0;entryDy=0;" parent="1" source="9" target="25" edge="1">
                    <mxGeometry relative="1" as="geometry">
                        <Array as="points">
                            <mxPoint x="140" y="-1080"/>
                            <mxPoint x="420" y="-1080"/>
                            <mxPoint x="595" y="-1080"/>
                        </Array>
                    </mxGeometry>
                </mxCell>
                <mxCell id="74" style="edgeStyle=none;html=1;entryX=0;entryY=0.5;entryDx=0;entryDy=0;" parent="1" source="9" target="18" edge="1">
                    <mxGeometry relative="1" as="geometry">
                        <Array as="points">
                            <mxPoint x="140" y="-685"/>
                        </Array>
                    </mxGeometry>
                </mxCell>
                <mxCell id="9" value="&lt;p style=&quot;margin:0px;margin-top:6px;text-align:center;&quot;&gt;&lt;b&gt;FastAPI App&lt;br&gt;(main.py)&lt;/b&gt;&lt;/p&gt;&lt;hr size=&quot;1&quot; style=&quot;border-style:solid;&quot;&gt;&lt;p style=&quot;margin:0px;margin-left:8px;&quot;&gt;&lt;span style=&quot;background-color: transparent;&quot;&gt;+lifespan()&lt;br&gt;+create_new_schedule()&lt;/span&gt;&lt;/p&gt;&lt;p style=&quot;margin:0px;margin-left:8px;&quot;&gt;&lt;span style=&quot;background-color: transparent;&quot;&gt;+get_user_schedules()&lt;/span&gt;&lt;/p&gt;&lt;p style=&quot;margin:0px;margin-left:8px;&quot;&gt;&lt;span style=&quot;background-color: transparent;&quot;&gt;+get_schedule()&lt;/span&gt;&lt;/p&gt;&lt;p style=&quot;margin:0px;margin-left:8px;&quot;&gt;&lt;span style=&quot;background-color: transparent;&quot;&gt;+get_next_takings()&lt;/span&gt;&lt;/p&gt;" style="align=left;overflow=fill;html=1;dropTarget=0;whiteSpace=wrap;" parent="1" vertex="1">
                    <mxGeometry x="40" y="-1040" width="200" height="120" as="geometry"/>
                </mxCell>
                <mxCell id="17" value="&lt;p style=&quot;margin:0px;margin-top:4px;text-align:center;&quot;&gt;&lt;b&gt;Settings&lt;br&gt;(config.py)&lt;/b&gt;&lt;/p&gt;&lt;hr size=&quot;1&quot; style=&quot;border-style:solid;&quot;&gt;&lt;p style=&quot;margin:0px;margin-left:4px;&quot;&gt;-database_url: str&lt;/p&gt;" style="verticalAlign=top;align=left;overflow=fill;html=1;whiteSpace=wrap;" parent="1" vertex="1">
                    <mxGeometry x="298.75" y="-620" width="162.5" height="65" as="geometry"/>
                </mxCell>
                <mxCell id="63" style="edgeStyle=none;html=1;exitX=0.5;exitY=1;exitDx=0;exitDy=0;entryX=0.5;entryY=0;entryDx=0;entryDy=0;" parent="1" source="18" target="17" edge="1">
                    <mxGeometry relative="1" as="geometry"/>
                </mxCell>
                <mxCell id="18" value="&lt;p style=&quot;margin:0px;margin-top:4px;text-align:center;&quot;&gt;&lt;b&gt;Database&lt;br&gt;(database.py)&lt;/b&gt;&lt;/p&gt;&lt;hr size=&quot;1&quot; style=&quot;border-style:solid;&quot;&gt;&lt;p style=&quot;margin:0px;margin-left:4px;&quot;&gt;&lt;span style=&quot;background-color: transparent;&quot;&gt;+create_pool()&lt;/span&gt;&lt;/p&gt;" style="verticalAlign=top;align=left;overflow=fill;html=1;whiteSpace=wrap;" parent="1" vertex="1">
                    <mxGeometry x="300" y="-720" width="160" height="70" as="geometry"/>
                </mxCell>
                <mxCell id="24" value="&lt;p style=&quot;margin:0px;margin-top:4px;text-align:center;&quot;&gt;&lt;b&gt;Pydantic Models&lt;br&gt;(models.py)&lt;/b&gt;&lt;/p&gt;&lt;hr size=&quot;1&quot; style=&quot;border-style:solid;&quot;&gt;&lt;p style=&quot;margin:0px;margin-left:4px;&quot;&gt;MedicationSchedule&lt;/p&gt;&lt;p style=&quot;margin:0px;margin-left:4px;&quot;&gt;ScheduleCreate&lt;/p&gt;&lt;p style=&quot;margin:0px;margin-left:4px;&quot;&gt;ScheduleResponse&lt;/p&gt;&lt;p style=&quot;margin:0px;margin-left:4px;&quot;&gt;ScheduleDetail&lt;/p&gt;&lt;p style=&quot;margin:0px;margin-left:4px;&quot;&gt;NextTakings&lt;/p&gt;" style="verticalAlign=top;align=left;overflow=fill;html=1;whiteSpace=wrap;" parent="1" vertex="1">
                    <mxGeometry x="303" y="-990" width="165" height="120" as="geometry"/>
                </mxCell>
                <mxCell id="66" style="edgeStyle=none;html=1;exitX=1;exitY=0.5;exitDx=0;exitDy=0;entryX=1;entryY=0.5;entryDx=0;entryDy=0;" parent="1" source="25" target="18" edge="1">
                    <mxGeometry relative="1" as="geometry">
                        <Array as="points">
                            <mxPoint x="700" y="-985"/>
                            <mxPoint x="700" y="-830"/>
                            <mxPoint x="700" y="-685"/>
                        </Array>
                    </mxGeometry>
                </mxCell>
                <mxCell id="73" style="edgeStyle=none;html=1;exitX=0.5;exitY=1;exitDx=0;exitDy=0;entryX=1;entryY=0.5;entryDx=0;entryDy=0;" parent="1" source="25" target="26" edge="1">
                    <mxGeometry relative="1" as="geometry">
                        <Array as="points">
                            <mxPoint x="595" y="-800"/>
                        </Array>
                    </mxGeometry>
                </mxCell>
                <mxCell id="25" value="&lt;p style=&quot;margin:0px;margin-top:4px;text-align:center;&quot;&gt;&lt;b&gt;Services&lt;br&gt;(services.py)&lt;/b&gt;&lt;/p&gt;&lt;hr size=&quot;1&quot; style=&quot;border-style:solid;&quot;&gt;&lt;p style=&quot;margin:0px;margin-left:4px;&quot;&gt;+create_schedule()&lt;/p&gt;&lt;p style=&quot;margin:0px;margin-left:4px;&quot;&gt;+get_schedules()&lt;/p&gt;&lt;p style=&quot;margin:0px;margin-left:4px;&quot;&gt;+get_schedule_detail()&lt;/p&gt;&lt;p style=&quot;margin:0px;margin-left:4px;&quot;&gt;+get_takings()&lt;/p&gt;" style="verticalAlign=top;align=left;overflow=fill;html=1;whiteSpace=wrap;" parent="1" vertex="1">
                    <mxGeometry x="520" y="-1040" width="150" height="110" as="geometry"/>
                </mxCell>
                <mxCell id="26" value="&lt;p style=&quot;margin:0px;margin-top:4px;text-align:center;&quot;&gt;&lt;b&gt;Utils&lt;br&gt;(utils.py)&lt;/b&gt;&lt;/p&gt;&lt;hr size=&quot;1&quot; style=&quot;border-style:solid;&quot;&gt;&lt;p style=&quot;margin:0px;margin-left:4px;&quot;&gt;+generate_schedule_id()&lt;/p&gt;&lt;p style=&quot;margin:0px;margin-left:4px;&quot;&gt;+calculate_schedule_times()&lt;/p&gt;" style="verticalAlign=top;align=left;overflow=fill;html=1;whiteSpace=wrap;" parent="1" vertex="1">
                    <mxGeometry x="300" y="-840" width="170" height="80" as="geometry"/>
                </mxCell>
                <mxCell id="68" style="edgeStyle=none;html=1;exitX=1;exitY=0.5;exitDx=0;exitDy=0;entryX=0;entryY=0.6;entryDx=0;entryDy=0;entryPerimeter=0;" parent="1" source="9" target="24" edge="1">
                    <mxGeometry relative="1" as="geometry">
                        <Array as="points">
                            <mxPoint x="270" y="-980"/>
                            <mxPoint x="270" y="-918"/>
                        </Array>
                    </mxGeometry>
                </mxCell>
                <mxCell id="70" style="edgeStyle=none;html=1;exitX=0;exitY=0.5;exitDx=0;exitDy=0;entryX=1;entryY=0.558;entryDx=0;entryDy=0;entryPerimeter=0;" parent="1" source="25" target="24" edge="1">
                    <mxGeometry relative="1" as="geometry">
                        <Array as="points">
                            <mxPoint x="500" y="-985"/>
                            <mxPoint x="500" y="-923"/>
                        </Array>
                    </mxGeometry>
                </mxCell>
                <mxCell id="75" value="&lt;div&gt;&lt;font&gt;&lt;b&gt;Clean Architecture:&lt;/b&gt;&lt;/font&gt;&lt;/div&gt;&lt;div&gt;&lt;ul&gt;&lt;li&gt;&lt;font&gt;&lt;span style=&quot;background-color: transparent;&quot;&gt;Frameworks &amp;amp; Drivers&lt;/span&gt;&lt;span style=&quot;background-color: transparent;&quot;&gt;: database.py, config.py&lt;/span&gt;&lt;/font&gt;&lt;/li&gt;&lt;li&gt;&lt;font&gt;Interface Adapters: main.py (HTTP-интерфейс)&lt;/font&gt;&lt;/li&gt;&lt;li&gt;&lt;font&gt;&lt;span style=&quot;background-color: transparent;&quot;&gt;Application Business Rules&lt;/span&gt;&lt;span style=&quot;background-color: transparent;&quot;&gt;: services.py&lt;/span&gt;&lt;/font&gt;&lt;/li&gt;&lt;li&gt;&lt;font&gt;&lt;span style=&quot;background-color: transparent;&quot;&gt;Enterprise Business Rules&lt;/span&gt;&lt;span style=&quot;background-color: transparent;&quot;&gt;: models.py, utils.py&lt;/span&gt;&lt;/font&gt;&lt;/li&gt;&lt;/ul&gt;&lt;/div&gt;" style="text;html=1;align=left;verticalAlign=middle;whiteSpace=wrap;rounded=0;" vertex="1" parent="1">
                    <mxGeometry x="520" y="-665" width="300" height="115" as="geometry"/>
                </mxCell>
            </root>
        </mxGraphModel>
    </diagram>
</mxfile>